<?xml version="1.0" encoding="utf-8"?>
<!-- Generator: Adobe Illustrator 25.4.1, SVG Export Plug-In . SVG Version: 6.00 Build 0)  -->
<svg version="1.1" id="Layer_1" xmlns="http://www.w3.org/2000/svg" xmlns:xlink="http://www.w3.org/1999/xlink" x="0px" y="0px"
	 viewBox="0 0 256 256" style="enable-background:new 0 0 256 256;" xml:space="preserve">
<style type="text/css">
	.st0{fill:#FFFFFF;}
</style>
<g>
	<path class="st0" d="M128.1,1.1c70.1,0,126.9,56.9,126.8,127c-0.1,70.2-57,126.9-127.1,126.8C57.7,254.8,1,197.9,1.1,127.8
		C1.2,57.7,58,1,128.1,1.1z M107.5,128.2c0,27.4,0,54.5,0,81.6c11,0,21.8,0,32.8,0c0-27.3,0-54.6,0-82c7.7,0,15.2,0,22.8,0
		c0.8-9.2,1.6-18.2,2.5-27.5c-8.5,0-16.9,0-25.3,0c0-5.9-0.1-11.5,0-17.2c0.1-5.7,2-7.5,7.8-7.5c5.2,0,10.4,0,15.6,0
		c0.6,0,1.2,0,1.8,0c0-9.6,0-19,0-28.4c-0.6,0-1.1-0.1-1.6-0.1c-6.9,0-13.9-0.1-20.8,0c-3.3,0-6.7,0.2-10,0.7
		c-5.9,0.8-11.4,2.6-16.1,6.4c-6.1,5-8.8,11.7-9.2,19.3c-0.4,8.2-0.2,16.4-0.3,24.6c0,0.7,0,1.3,0,2.2c-5.7,0-11.3,0-16.9,0
		c0,9.4,0,18.5,0,27.7C96.2,128.2,101.7,128.2,107.5,128.2z"/>
</g>
<g>
	<path d="M-516.1,935c-135.1-0.2-242.1-110.7-240.4-243.6c1.7-131.5,109.4-238.7,242.9-237.4c131.4,1.2,239.7,108.5,238.1,243.6
		C-277.2,830.4-385.3,935-516.1,935z M-420.8,788.8c0.1-1.9,0.1-3.5,0.1-5.2c0-27.7,0-55.4,0-83.1c0-2.8-0.1-5.5-0.3-8.3
		c-0.6-7.1-2.3-13.9-5.5-20.4c-4.4-8.9-11.2-15.3-20.3-19.3c-4.3-1.9-8.8-2.9-13.3-3.5c-15.4-1.8-29,2-40.2,13.1
		c-1.9,1.8-3.5,3.8-5.3,5.8c-0.5,0.5-0.9,1.3-2.1,0.7c0-4.6,0-9.4,0-14.2c0-1-0.3-2-0.5-3c-0.8-0.1-1.2-0.2-1.7-0.3
		c-11.5,0-23.1,0-34.6,0c-0.7,0-1.4,0.3-2.4,0.5c0,2.2-0.1,4.1-0.1,6.1c0,41.6,0,83.1,0,124.7c0,1.2,0,2.5,0,3.7
		c0,0.9,0.2,1.7,0.4,2.9c3.5,0,6.7,0.1,9.9,0.1c3.1,0,6.2,0,9.2,0c3.2,0,6.5,0,9.7,0c3.2-0.1,6.4,0.3,9.8-0.3
		c0.1-1.9,0.2-3.6,0.2-5.2c0-22.9,0-45.9,0-68.8c0-1.7,0-3.4,0.1-5.1c0.2-4.2,0.9-8.3,2.6-12.1c2.7-6.3,7.4-10.5,14-12.3
		c4.8-1.3,9.8-1.3,14.6-0.1c6.2,1.5,10.7,5.2,13.4,11.1c0.9,2.1,1.6,4.3,2.2,6.5c0.9,3.6,1,7.3,1,11c0,16.6,0,33.2,0,49.9
		c0,7.2,0,14.5,0,21.7c0,1.2,0.2,2.3,0.4,3.4C-455.3,789.4-425.6,789.4-420.8,788.8z M-571.3,788.7c0-2.2,0.1-4.2,0.1-6.1
		c0-40.9,0-81.8,0-122.8c0-1.8,0-3.7,0-5.5c0-0.9-0.2-1.8-0.3-2.6c-0.7-0.2-1.1-0.4-1.6-0.4c-11.7,0-23.4,0-35.1,0
		c-0.7,0-1.4,0.4-2.3,0.7c0,2,0,3.8,0,5.7c0,41.7,0,83.4,0,125.1c0,1.2-0.1,2.5,0,3.7c0.1,0.9,0.3,1.7,0.5,2.5
		C-605.4,789.4-575.7,789.3-571.3,788.7z M-570.3,620c-0.1-11.4-9.2-20.4-20.6-20.4c-11.5,0-20.6,9.4-20.5,21
		c0.1,10.8,9.2,20.4,20.9,20.1C-579.1,640.5-570.2,631.5-570.3,620z"/>
</g>
</svg>
