<?xml version="1.0" encoding="utf-8"?>
<!-- Generator: Adobe Illustrator 25.4.1, SVG Export Plug-In . SVG Version: 6.00 Build 0)  -->
<svg version="1.1" id="Layer_1" xmlns="http://www.w3.org/2000/svg" xmlns:xlink="http://www.w3.org/1999/xlink" x="0px" y="0px"
	 viewBox="0 0 32 32" style="enable-background:new 0 0 32 32;" xml:space="preserve">
<style type="text/css">
	.st0{fill:#FCFCFC;}
</style>
<g>
	<path class="st0" d="M17.5,32c-1,0-2,0-3,0c-0.4-0.1-0.7-0.1-1.1-0.2c-3.7-0.6-6.8-2.3-9.3-5c-3.5-3.9-4.8-8.5-3.9-13.6
		c0.6-3.5,2.2-6.5,4.8-8.9c3.5-3.3,7.7-4.7,12.5-4.3c2,0.2,3.8,0.7,5.6,1.6c2.6,1.3,4.8,3.2,6.4,5.7c1.2,1.9,2,4,2.3,6.2
		c0.1,0.4,0.1,0.8,0.2,1.2c0,0.9,0,1.7,0,2.6c0,0.1,0,0.1,0,0.2c-0.1,0.8-0.2,1.5-0.4,2.3c-0.9,3.6-2.8,6.5-5.7,8.8
		c-2.2,1.7-4.6,2.8-7.3,3.2C18.2,31.9,17.9,32,17.5,32z M19.4,15.9c0,3.3,0,6.6,0,9.9c1.5,0,2.9,0,4.4,0c0-4.5,0-9,0-13.5
		c-2.9,0-5.7,0-8.6,0c0-0.3,0-0.6,0-0.8c0-0.9,0.6-1.5,1.5-1.5c0.8,0,1.7,0,2.5,0c0.1,0,0.1,0,0.2,0c0-1.2,0-2.5,0-3.7
		c-0.1,0-0.1,0-0.2,0c-1.2,0-2.4,0-3.6,0c-0.3,0-0.7,0-1,0.1c-1.9,0.4-3.5,2.1-3.8,4c-0.1,0.6,0,1.1-0.1,1.7c0,0.1,0,0.1,0,0.2
		c-0.9,0-1.7,0-2.6,0c0,1.2,0,2.4,0,3.6c0.9,0,1.7,0,2.6,0c0,3.3,0,6.6,0,9.9c1.5,0,2.9,0,4.4,0c0-3.3,0-6.6,0-9.9
		C16.6,15.9,18,15.9,19.4,15.9z"/>
</g>
</svg>
