<?xml version="1.0" encoding="utf-8"?>
<!-- Generator: Adobe Illustrator 25.4.1, SVG Export Plug-In . SVG Version: 6.00 Build 0)  -->
<svg version="1.1" id="Layer_1" xmlns="http://www.w3.org/2000/svg" xmlns:xlink="http://www.w3.org/1999/xlink" x="0px" y="0px"
	 viewBox="0 0 256 256" style="enable-background:new 0 0 256 256;" xml:space="preserve">
<style type="text/css">
	.st0{fill:#FFFFFF;}
</style>
<g transform="translate(1.4065934065934016 1.4065934065934016) scale(2.81 2.81)">
	<path class="st0" d="M58.9,41.5c-1.5,0-2.7,0.4-3.5,1.3c-0.8,0.8-1.3,2-1.6,3.5h10l0,0c-0.1-1.5-0.6-2.7-1.6-3.5
		C61.5,41.9,60.3,41.5,58.9,41.5z"/>
	<path class="st0" d="M37,40.9c0.8-0.5,1.3-1.4,1.3-2.7c0-1.4-0.6-2.4-1.7-2.9c-1-0.3-2.2-0.5-3.7-0.5h-5.8v6.9h6.6
		C35.1,41.7,36.2,41.5,37,40.9z"/>
	<path class="st0" d="M37,47.4c-0.7-0.3-1.8-0.5-3.1-0.5h-6.7v8.3h6.6c1.4,0,2.4-0.2,3.2-0.5c1.4-0.7,2-2,2-3.9
		C38.9,49.1,38.3,48,37,47.4z"/>
	<path class="st0" d="M45,0C20.1,0,0,20.1,0,45s20.1,45,45,45s45-20.1,45-45S69.9,0,45,0z M52.6,30.7h12.5v3.1h0H52.6V30.7z
		 M44.1,56.1c-0.6,1-1.3,1.8-2.2,2.4c-1,0.8-2.2,1.3-3.5,1.6c-1.4,0.3-2.8,0.4-4.4,0.4H20V29.4h15c3.8,0.1,6.5,1.2,8.1,3.3
		c1,1.3,1.4,2.9,1.4,4.8c0,1.9-0.5,3.4-1.4,4.6c-0.5,0.6-1.3,1.2-2.4,1.8c1.6,0.6,2.8,1.5,3.6,2.7c0.8,1.3,1.2,2.8,1.2,4.6
		C45.5,53,45,54.7,44.1,56.1z M70,50.1H53.8c0.1,2.2,0.9,3.8,2.3,4.7c0.9,0.6,2,0.8,3.2,0.8c1.3,0,2.4-0.3,3.2-1
		c0.5-0.4,0.9-0.9,1.2-1.5h5.9c-0.2,1.3-0.9,2.7-2.2,4c-2,2.2-4.8,3.3-8.4,3.3c-3,0-5.6-0.9-7.8-2.7c-2.3-1.8-3.4-4.8-3.4-8.9
		c0-3.9,1-6.8,3.1-8.9c2.1-2.1,4.7-3.1,8-3.1c1.9,0,3.7,0.3,5.2,1c1.6,0.7,2.8,1.8,3.8,3.3c0.9,1.3,1.5,2.9,1.8,4.6
		C70,46.7,70,48.2,70,50.1z"/>
</g>
</svg>
