<?xml version="1.0" encoding="utf-8"?>
<!-- Generator: Adobe Illustrator 25.4.1, SVG Export Plug-In . SVG Version: 6.00 Build 0)  -->
<svg version="1.1" id="Layer_1" xmlns="http://www.w3.org/2000/svg" xmlns:xlink="http://www.w3.org/1999/xlink" x="0px" y="0px"
	 viewBox="0 0 256 256" style="enable-background:new 0 0 256 256;" xml:space="preserve">
<style type="text/css">
	.st0{fill:#FFFFFF;}
</style>
<g>
	<path class="st0" d="M128,254.9C56.7,254.7,0.3,196.5,1.2,126.4C2,57,58.9,0.5,129.3,1.1c69.3,0.7,126.4,57.2,125.6,128.5
		C254,199.7,196.9,254.9,128,254.9z M178.2,177.8c0-1,0.1-1.9,0.1-2.7c0-14.6,0-29.2,0-43.8c0-1.5,0-2.9-0.2-4.4
		c-0.3-3.8-1.2-7.4-2.9-10.7c-2.3-4.7-5.9-8.1-10.7-10.2c-2.3-1-4.6-1.6-7-1.8c-8.1-1-15.3,1.1-21.2,6.9c-1,1-1.9,2-2.8,3
		c-0.3,0.3-0.5,0.7-1.1,0.4c0-2.4,0-5,0-7.5c0-0.5-0.2-1.1-0.2-1.6c-0.4-0.1-0.6-0.1-0.9-0.1c-6.1,0-12.2,0-18.3,0
		c-0.4,0-0.8,0.2-1.2,0.3c0,1.1,0,2.2,0,3.2c0,21.9,0,43.8,0,65.7c0,0.6,0,1.3,0,1.9c0,0.5,0.1,0.9,0.2,1.5c1.8,0,3.5,0,5.2,0
		c1.6,0,3.2,0,4.9,0c1.7,0,3.4,0,5.1,0c1.7,0,3.4,0.2,5.2-0.2c0-1,0.1-1.9,0.1-2.8c0-12.1,0-24.2,0-36.3c0-0.9,0-1.8,0-2.7
		c0.1-2.2,0.5-4.4,1.4-6.4c1.4-3.3,3.9-5.6,7.4-6.5c2.6-0.7,5.1-0.7,7.7-0.1c3.3,0.8,5.7,2.8,7.1,5.8c0.5,1.1,0.8,2.3,1.1,3.5
		c0.5,1.9,0.5,3.9,0.5,5.8c0,8.8,0,17.5,0,26.3c0,3.8,0,7.6,0,11.4c0,0.6,0.1,1.2,0.2,1.8C160,178.1,175.7,178.1,178.2,177.8z
		 M98.8,177.7c0-1.1,0-2.2,0-3.2c0-21.6,0-43.2,0-64.7c0-1,0-1.9,0-2.9c0-0.5-0.1-0.9-0.2-1.4c-0.4-0.1-0.6-0.2-0.8-0.2
		c-6.2,0-12.3,0-18.5,0c-0.4,0-0.7,0.2-1.2,0.3c0,1.1,0,2,0,3c0,22,0,44,0,66c0,0.6,0,1.3,0,1.9c0,0.5,0.2,0.9,0.3,1.3
		C80.8,178.1,96.5,178.1,98.8,177.7z M99.4,88.8c-0.1-6-4.8-10.8-10.9-10.7c-6.1,0-10.9,5-10.8,11.1c0.1,5.7,4.8,10.7,11,10.6
		C94.7,99.6,99.4,94.8,99.4,88.8z"/>
</g>
</svg>
