<?xml version="1.0" encoding="utf-8"?>
<!-- Generator: Adobe Illustrator 25.4.1, SVG Export Plug-In . SVG Version: 6.00 Build 0)  -->
<svg version="1.1" id="Layer_1" xmlns="http://www.w3.org/2000/svg" xmlns:xlink="http://www.w3.org/1999/xlink" x="0px" y="0px"
	 viewBox="0 0 256 256" style="enable-background:new 0 0 256 256;" xml:space="preserve">
<style type="text/css">
	.st0{fill:#FFFFFF;}
</style>
<g>
	<path class="st0" d="M117.6,1c7,0,14,0,21.1,0c0.7,0.2,1.3,0.6,2,0.7c3.4,0.4,6.8,0.5,10.2,1.2c4.4,0.9,8.8,1.9,13.1,3.2
		c5.4,1.7,10.8,3.6,16,5.9c7.1,3.1,14.1,6.7,20.3,11.5c5.1,3.9,10.4,7.6,15,12c4.9,4.6,9.3,9.7,13.4,15c4.1,5.3,7.7,10.9,11,16.7
		c2.7,4.7,5,9.7,6.9,14.7c1.9,4.9,3.2,9.9,4.6,15c1,3.6,1.7,7.3,2.2,11c0.7,4.8,1.4,9.6,1.6,14.4c0.1,5.9-0.2,11.8-0.6,17.7
		c-0.3,4.5-0.7,9-1.7,13.3c-1.6,6.6-3.5,13.1-5.7,19.5c-3.1,9.1-7.6,17.6-13,25.6c-4.4,6.5-9.1,12.7-14.7,18.2
		c-3.6,3.6-7.4,6.9-11.3,10.1c-4,3.2-8.1,6.5-12.5,9.1c-5.8,3.4-11.8,6.6-18,9.2c-5.9,2.5-12.1,4.2-18.2,6c-3.6,1-7.3,1.6-11,2.2
		c-3.6,0.6-7.2,1.5-10.8,1.5c-7,0-14.1,0.8-21.1-0.5c-4.9-0.9-10-1.1-14.8-2.2c-6.1-1.4-12.2-3.2-18.1-5.2
		c-9.2-3.1-17.7-7.7-25.8-13.1c-6.3-4.2-12.2-8.9-17.7-14.2c-3.2-3.1-6.3-6.5-9.3-9.9c-2.1-2.4-4-4.9-5.8-7.5
		c-2.6-3.8-5.1-7.6-7.4-11.7c-2.5-4.6-4.9-9.3-6.9-14.2c-2.1-5.1-3.6-10.4-5.2-15.7c-1-3.5-1.8-7-2.4-10.6
		c-0.6-3.4-0.7-6.8-1.1-10.2c-0.1-0.4-0.5-0.8-0.7-1.3c0-7,0-14,0-21.1c0.2-0.4,0.6-0.9,0.7-1.3c0.8-4.9,1.3-9.9,2.2-14.8
		c1.1-6.3,3-12.3,5.2-18.3C12.6,74,17,65.4,22.4,57.4c5.1-7.5,10.7-14.5,17.2-20.7c2.6-2.5,5.5-4.9,8.3-7.2
		c5.8-4.8,12-9.1,18.7-12.7c9.1-4.9,18.5-9,28.6-11.4c6.9-1.7,13.8-3.4,20.9-3.6C116.6,1.7,117.1,1.2,117.6,1z M44.3,128
		c0,11.9,0,23.7,0,35.6c0,1.9,0.1,3.7,0.3,5.6c2.7,23.8,23.8,42.7,47.8,42.7c23.4,0,46.7,0,70.1,0c2.9,0,5.8-0.2,8.7-0.7
		c23.1-3.5,40.9-24.2,40.9-47.6c0-23.2,0-46.5,0-69.7c0-3.1-0.2-6.2-0.7-9.2c-3.4-22.7-24.2-40.6-47.2-40.6c-23.5,0-47.1,0-70.6,0
		c-7.1,0-13.8,1.4-20.3,4.1c-16.9,7.2-28.9,25.3-28.9,43.6C44.3,104,44.3,116,44.3,128z"/>
	<path class="st0" d="M57.2,128c0-11.5-0.2-23,0-34.5C57.5,77.9,64.7,66.6,79,60c4.6-2.1,9.5-2.9,14.5-2.9c23.1,0,46.2-0.1,69.3,0
		c17.9,0.1,32.1,11.7,35.5,29.2c0.5,2.3,0.6,4.7,0.6,7c0,23.1,0.1,46.2,0,69.3c0,17.8-11.7,32-29.2,35.5c-2.4,0.5-4.8,0.6-7.2,0.6
		c-22.9,0-45.9,0-68.8,0c-19.1,0-33.8-12.9-36.3-31.7c-0.2-1.7-0.2-3.5-0.3-5.2C57.2,150.6,57.2,139.3,57.2,128z M128,173.2
		c24.9,0,45.2-20.2,45.3-44.8c0-25.4-20.1-45.7-45.5-45.6C103.1,83,83,103,82.9,127.8C82.8,152.9,103.1,173.2,128,173.2z
		 M176.5,69.9c-5.3,0-9.7,4.3-9.8,9.6c-0.1,5.3,4.4,9.8,9.8,9.8c5.4,0,9.8-4.4,9.8-9.8C186.2,74.3,181.8,69.9,176.5,69.9z"/>
	<path class="st0" d="M128.1,95.9c17.9-0.3,32.3,14.9,32.2,32.3c-0.1,17.3-14.6,32.2-32.5,32c-17.1-0.2-32-14.4-31.8-32.5
		C96.2,110,110.3,95.9,128.1,95.9z"/>
</g>
</svg>
